<mxfile host="app.diagrams.net" modified="2023-04-05T15:45:33.957Z" agent="Mozilla/5.0 (X11; Ubuntu; Linux x86_64; rv:109.0) Gecko/20100101 Firefox/111.0" etag="cDqjWMq1i5CiTfjrOfQT" version="21.1.4" type="github">
  <diagram id="C5RBs43oDa-KdzZeNtuy" name="Page-1">
    <mxGraphModel dx="880" dy="463" grid="1" gridSize="10" guides="1" tooltips="1" connect="1" arrows="1" fold="1" page="1" pageScale="1" pageWidth="827" pageHeight="1169" math="0" shadow="0">
      <root>
        <mxCell id="WIyWlLk6GJQsqaUBKTNV-0" />
        <mxCell id="WIyWlLk6GJQsqaUBKTNV-1" parent="WIyWlLk6GJQsqaUBKTNV-0" />
        <mxCell id="a8_wa7-TmqVhNX_Gi0GO-22" value="" style="edgeStyle=orthogonalEdgeStyle;rounded=0;orthogonalLoop=1;jettySize=auto;html=1;entryX=0.5;entryY=0;entryDx=0;entryDy=0;entryPerimeter=0;" edge="1" parent="WIyWlLk6GJQsqaUBKTNV-1" source="a8_wa7-TmqVhNX_Gi0GO-0" target="a8_wa7-TmqVhNX_Gi0GO-1">
          <mxGeometry relative="1" as="geometry">
            <Array as="points">
              <mxPoint x="100" y="80" />
              <mxPoint x="100" y="80" />
            </Array>
          </mxGeometry>
        </mxCell>
        <mxCell id="a8_wa7-TmqVhNX_Gi0GO-0" value="Старт" style="strokeWidth=2;html=1;shape=mxgraph.flowchart.terminator;whiteSpace=wrap;" vertex="1" parent="WIyWlLk6GJQsqaUBKTNV-1">
          <mxGeometry x="50" y="10" width="100" height="60" as="geometry" />
        </mxCell>
        <mxCell id="a8_wa7-TmqVhNX_Gi0GO-5" value="" style="edgeStyle=orthogonalEdgeStyle;rounded=0;orthogonalLoop=1;jettySize=auto;html=1;" edge="1" parent="WIyWlLk6GJQsqaUBKTNV-1" source="a8_wa7-TmqVhNX_Gi0GO-1" target="a8_wa7-TmqVhNX_Gi0GO-4">
          <mxGeometry relative="1" as="geometry" />
        </mxCell>
        <mxCell id="a8_wa7-TmqVhNX_Gi0GO-14" value="" style="edgeStyle=orthogonalEdgeStyle;rounded=0;orthogonalLoop=1;jettySize=auto;html=1;" edge="1" parent="WIyWlLk6GJQsqaUBKTNV-1" source="a8_wa7-TmqVhNX_Gi0GO-1" target="a8_wa7-TmqVhNX_Gi0GO-13">
          <mxGeometry relative="1" as="geometry">
            <Array as="points">
              <mxPoint x="100" y="280" />
              <mxPoint x="180" y="280" />
            </Array>
          </mxGeometry>
        </mxCell>
        <mxCell id="a8_wa7-TmqVhNX_Gi0GO-1" value="&lt;div&gt;Последний период договора?&lt;/div&gt;" style="strokeWidth=2;html=1;shape=mxgraph.flowchart.decision;whiteSpace=wrap;" vertex="1" parent="WIyWlLk6GJQsqaUBKTNV-1">
          <mxGeometry x="50" y="90" width="100" height="100" as="geometry" />
        </mxCell>
        <mxCell id="a8_wa7-TmqVhNX_Gi0GO-16" value="" style="edgeStyle=orthogonalEdgeStyle;rounded=0;orthogonalLoop=1;jettySize=auto;html=1;" edge="1" parent="WIyWlLk6GJQsqaUBKTNV-1" source="a8_wa7-TmqVhNX_Gi0GO-4" target="a8_wa7-TmqVhNX_Gi0GO-15">
          <mxGeometry relative="1" as="geometry" />
        </mxCell>
        <mxCell id="a8_wa7-TmqVhNX_Gi0GO-20" value="" style="edgeStyle=orthogonalEdgeStyle;rounded=0;orthogonalLoop=1;jettySize=auto;html=1;" edge="1" parent="WIyWlLk6GJQsqaUBKTNV-1" source="a8_wa7-TmqVhNX_Gi0GO-4" target="a8_wa7-TmqVhNX_Gi0GO-19">
          <mxGeometry relative="1" as="geometry">
            <Array as="points">
              <mxPoint x="280" y="280" />
              <mxPoint x="180" y="280" />
            </Array>
          </mxGeometry>
        </mxCell>
        <mxCell id="a8_wa7-TmqVhNX_Gi0GO-4" value="Договор продлевается?" style="strokeWidth=2;html=1;shape=mxgraph.flowchart.decision;whiteSpace=wrap;" vertex="1" parent="WIyWlLk6GJQsqaUBKTNV-1">
          <mxGeometry x="230" y="90" width="100" height="100" as="geometry" />
        </mxCell>
        <mxCell id="a8_wa7-TmqVhNX_Gi0GO-11" value="Да" style="text;html=1;strokeColor=none;fillColor=none;align=center;verticalAlign=middle;whiteSpace=wrap;rounded=0;" vertex="1" parent="WIyWlLk6GJQsqaUBKTNV-1">
          <mxGeometry x="130" y="110" width="60" height="30" as="geometry" />
        </mxCell>
        <mxCell id="a8_wa7-TmqVhNX_Gi0GO-12" value="&lt;div&gt;Нет&lt;/div&gt;" style="text;html=1;strokeColor=none;fillColor=none;align=center;verticalAlign=middle;whiteSpace=wrap;rounded=0;" vertex="1" parent="WIyWlLk6GJQsqaUBKTNV-1">
          <mxGeometry x="100" y="190" width="60" height="30" as="geometry" />
        </mxCell>
        <mxCell id="a8_wa7-TmqVhNX_Gi0GO-13" value="Изменена сумма?" style="rhombus;whiteSpace=wrap;html=1;strokeWidth=2;" vertex="1" parent="WIyWlLk6GJQsqaUBKTNV-1">
          <mxGeometry x="140" y="360" width="80" height="80" as="geometry" />
        </mxCell>
        <mxCell id="a8_wa7-TmqVhNX_Gi0GO-15" value="Ошибка. Изменение не имеет смысла" style="shape=step;perimeter=stepPerimeter;whiteSpace=wrap;html=1;fixedSize=1;strokeWidth=2;" vertex="1" parent="WIyWlLk6GJQsqaUBKTNV-1">
          <mxGeometry x="400" y="100" width="130" height="80" as="geometry" />
        </mxCell>
        <mxCell id="a8_wa7-TmqVhNX_Gi0GO-17" value="Нет" style="text;html=1;strokeColor=none;fillColor=none;align=center;verticalAlign=middle;whiteSpace=wrap;rounded=0;" vertex="1" parent="WIyWlLk6GJQsqaUBKTNV-1">
          <mxGeometry x="320" y="110" width="60" height="30" as="geometry" />
        </mxCell>
        <mxCell id="a8_wa7-TmqVhNX_Gi0GO-18" value="&lt;div&gt;Да&lt;/div&gt;" style="text;html=1;strokeColor=none;fillColor=none;align=center;verticalAlign=middle;whiteSpace=wrap;rounded=0;" vertex="1" parent="WIyWlLk6GJQsqaUBKTNV-1">
          <mxGeometry x="280" y="190" width="60" height="30" as="geometry" />
        </mxCell>
        <mxCell id="a8_wa7-TmqVhNX_Gi0GO-19" value="" style="shape=waypoint;sketch=0;size=6;pointerEvents=1;points=[];fillColor=default;resizable=0;rotatable=0;perimeter=centerPerimeter;snapToPoint=1;strokeWidth=2;" vertex="1" parent="WIyWlLk6GJQsqaUBKTNV-1">
          <mxGeometry x="170" y="350" width="20" height="20" as="geometry" />
        </mxCell>
      </root>
    </mxGraphModel>
  </diagram>
</mxfile>
